<?xml version="1.0" encoding="UTF-8"?>
<svg id="Layer_2" data-name="Layer 2" xmlns="http://www.w3.org/2000/svg" viewBox="0 0 673.02 404.09">
  <g id="Layer_1-2" data-name="Layer 1">
    <path d="M2.43,166.72c-2.7-3.2-2.58-8.18-2.26-12.13C37.24,104.42,76.24,54.62,115.77,6.22c5.1-3.81,11.41-5.91,17.78-6.22l374.96.13c15.7,2.69,24.31,19.63,16.99,33.82l-130.89,172.11c-4.64,10.71,3.27,23.57,14.95,24.03l251.04-.04c10.71,1.22,15.83,11.81,9.95,20.95l-110.48,142.52c-5.95,6.36-13.59,10.25-22.43,10.57l-396.93-.15c-15.91-1.93-24.61-19.39-17.79-33.56l133.66-175.34c4.59-11.36-3.04-22.65-14.98-23.99l-234.07-.92c-.94-.34-4.51-2.69-5.11-3.39Z"/>
  </g>
</svg>